# xmcd
#
# Track frame offsets:
#	150
#	50510
#	99869
#	154818
#	166044
#	239936
#	282105
#	334231
#
# Disc length: 4768 seconds
#
# Revision: 0
# Processed by: cddbd v1.5.2PL0 Copyright (c) Steve Scherf et al.
# Submitted via: audiograbber 1.83.01
#
DISCID=68129e08
DTITLE=Grateful Dead - 92-03-16 The Spectrum, Philadelphia PA
DYEAR=1900
DGENRE=
TTITLE0=Scarlet Begonias
TTITLE1=Fire On The Mountain
TTITLE2=Estimated Prophet
TTITLE3=Drums
TTITLE4=Space
TTITLE5=All Along The Watchtower
TTITLE6=Morning Dew
TTITLE7=Johnny B Goode
EXTD=
EXTT0=
EXTT1=
EXTT2=
EXTT3=
EXTT4=
EXTT5=
EXTT6=
EXTT7=
PLAYORDER=
